<?xml version="1.0" encoding="utf-8"?>
<!-- Generator: Adobe Illustrator 19.2.1, SVG Export Plug-In . SVG Version: 6.00 Build 0)  -->
<svg version="1.1" id="Слой_1" xmlns="http://www.w3.org/2000/svg" xmlns:xlink="http://www.w3.org/1999/xlink" x="0px" y="0px"
	 viewBox="0 0 278 270" style="enable-background:new 0 0 278 270;" xml:space="preserve">
<style type="text/css">
	.st0{fill:#FFFFFF;}
</style>
<g>
	<path class="st0" d="M8.8,238.5v-97.7h29.8c5.6,0,10.1,0.5,13.4,1.5c6.2,1.9,10.3,6.2,12.4,13.1c1.4,4.4,2.2,10.7,2.2,19v32.3
		c0,8.4-0.6,14.5-1.9,18.4c-2.2,6.5-6.4,10.5-12.7,12.1c-3.5,0.8-7.9,1.3-13.4,1.3H8.8z M43.6,167.2c0-5-0.7-8.1-2.2-9.3
		c-1.5-1.2-4.7-1.8-9.9-1.8v67.3c4.7,0,7.9-0.6,9.5-1.8s2.5-4.1,2.5-8.5V167.2z"/>
</g>
<g>
	<path class="st0" d="M271.2,175.7h-23v-13.8c0-2.4-0.4-4.1-1.2-5.1c-0.8-1.1-2.4-1.6-4.7-1.6s-3.9,0.5-4.7,1.6
		c-0.8,1.1-1.2,2.8-1.2,5.1v55.6c0,2.4,0.4,4.1,1.2,5.1c0.8,1.1,2.4,1.6,4.7,1.6s3.9-0.5,4.7-1.6c0.8-1.1,1.2-2.8,1.2-5.1v-16.1h23
		v11.3c0,10.5-2.3,17.7-7,21.7c-4.2,3.6-11.7,5.5-22.3,5.5c-10.6,0-17.8-1.9-21.8-5.6c-4.2-3.9-6.3-11.1-6.3-21.6v-46.3
		c0-15.4,5.3-24,16-25.9c3.4-0.6,7.4-0.9,12-0.9c5.1,0,9.4,0.3,13.1,0.9c7.9,1.3,13,5.8,15.1,13.4
		C270.8,157.1,271.2,164.4,271.2,175.7z"/>
</g>
<g>
	<path class="st0" d="M65.6,84.9c0,10.3-2.5,17.4-7.4,21.2c-4.2,3.3-11.7,4.9-22.3,4.9c-9,0-15.7-1.3-19.9-3.9
		c-5.3-3.4-8-9.3-8-17.9V74.1h22.7v14.6c0,4.5,2.1,6.7,6.3,6.7c3.7,0,5.6-2.2,5.6-6.7c0-3.6-0.2-6.3-0.5-8.1
		c-0.8-3.9-3.2-7.4-7.4-10.4c-4.1-2.5-8.2-4.9-12.3-7.4c-5.1-3-8.6-6.2-10.5-9.4c-2.6-4.3-3.9-10.9-3.9-19.8
		c0-9.6,2.6-16.2,7.9-19.8c4.2-2.9,11.4-4.3,21.4-4.3c8.8,0,15.4,1.3,19.8,3.8c5.7,3.3,8.5,9.1,8.5,17.2v12.8h-23V32.3
		c0-4.7-2-7.1-6.1-7.1c-3.9,0-5.8,2.2-5.8,6.6c0,4.8,0.9,8.4,2.6,10.8s6.4,5.6,13.9,9.7c7.5,4.1,12.4,7.9,14.7,11.5
		C64.4,67.5,65.6,74.6,65.6,84.9z"/>
	<path class="st0" d="M130.1,31l7.5,61.8l4.9-61.8H161l-10.9,78.1h-26.4l-7.4-63.3l-7.1,63.3H83.8L71.6,31h21.8l5.8,61.9l6.8-61.9
		H130.1z"/>
	<path class="st0" d="M167.3,25.2V11.5h21.6v13.7H167.3z M188.9,109.1h-21.6V31h21.6V109.1z"/>
	<path class="st0" d="M222.3,109.1h-21.7v-64h-4.2V31h4.2c0-5.6,0.3-9.4,0.9-11.4c1.6-5.4,7.5-8.1,17.8-8.1h8.8v13.8
		c-3,0-4.7,0.2-5.2,0.7c-0.5,0.5-0.8,2.1-0.8,5h6.8v14.1h-6.6V109.1z"/>
	<path class="st0" d="M263.7,31h7.5v14.1h-7.5v45.3c0,2.5,0.7,3.9,2,4.4c0.5,0.2,2.3,0.3,5.5,0.3v14.1h-15.5c-5.3,0-9-1.4-11-4.3
		c-1.6-2.4-2.4-6.4-2.4-12V45.1h-6.1V31h6.1V16.9h21.4V31z"/>
</g>
<g>
	<path class="st0" d="M143.4,123.1c-0.2-0.1-0.3-0.2-0.4-0.2c-0.8-0.5-1.7-0.7-2.9-0.7c-1,0-1.9,0.2-2.6,0.7
		c-0.2,0.1-0.3,0.1-0.5,0.2l-44.3,25.6c-1.6,0.9-2.5,1.7-2.9,2.3c-1.3,2.3-0.2,5.5,2.6,7.1l44.1,25.3c0.8,0.4,1.6,0.7,2.3,0.8
		c0.5,0.1,0.9,0.2,1.4,0.2c1.1,0,2.3-0.3,3.3-0.9l33.8-19.5l-9.7-5.6l-27.6,15.9l-36.3-20.8l36.3-21l51.5,29.8l9.7-5.6
		C201.4,156.7,143.4,123.1,143.4,123.1z"/>
	<path class="st0" d="M202.6,174.2c0,0-0.1-2.7-0.6-3.6c-1.3-2.2-4.8-2.9-7.5-1.3L150,194.9c-1.9,0.8-3.2,3-3.2,5.5l0,39.1l9.7-5.6
		l0-31.6l36.3-20.9l0,42.2l-50.7,29.3l0,11.2l57-32.9c1.6-0.9,2.7-2.3,3-3.8c0.3-0.7,0.4-1.5,0.4-2.4L202.6,174.2z"/>
	<path class="st0" d="M133.8,201.1c0-2.4-1.3-4.6-3-5.4c-0.2-0.2-0.5-0.4-0.8-0.5l-34-19.6v11.2l28,16.2l0,41.8l-36.5-21.1l0-59
		l-9.7-5.6c0,0,0,0,0,0l0,66.6c0,0.2,0,0.4,0,0.4c0,0.9,0.2,1.9,0.8,2.8c0.5,0.9,1.2,1.6,1.9,2c0.1,0.1,0.3,0.2,0.4,0.3l44.3,25.6
		c0.5,0.3,1.8,1.1,3.4,1.1l0.3,0c2.7-0.2,4.8-2.7,4.8-5.8L133.8,201.1z M128.8,256.8L128.8,256.8
		C128.8,256.8,128.8,256.8,128.8,256.8L128.8,256.8z"/>
</g>
</svg>
