<svg xmlns="http://www.w3.org/2000/svg" xmlns:xlink="http://www.w3.org/1999/xlink" viewBox="0 0 253.72 292.95"><defs><style>.cls-1{fill:url(#linear-gradient);}.cls-2{fill:url(#linear-gradient-2);}.cls-3{fill:url(#linear-gradient-3);}.cls-4{fill:#fff;fill-rule:evenodd;}</style><linearGradient id="linear-gradient" y1="183.08" x2="126.86" y2="183.08" gradientUnits="userSpaceOnUse"><stop offset="0" stop-color="#65aa86"/><stop offset="1" stop-color="#3e6b56"/></linearGradient><linearGradient id="linear-gradient-2" x1="126.86" y1="183.08" x2="253.72" y2="183.08" xlink:href="#linear-gradient"/><linearGradient id="linear-gradient-3" y1="73.72" x2="253.72" y2="73.72" xlink:href="#linear-gradient"/></defs><title>Asset 8</title><g id="Layer_2" data-name="Layer 2"><g id="Слой_1" data-name="Слой 1"><polygon class="cls-1" points="126.86 147.42 126.86 292.95 0 219.7 0 73.22 126.86 147.42"/><polygon class="cls-2" points="126.86 147.42 126.86 292.95 253.72 219.7 253.72 73.22 126.86 147.42"/><polygon class="cls-3" points="0 73.24 126.86 147.44 253.72 73.24 126.86 0 0 73.24"/><path class="cls-4" d="M132.67,16.87a4.75,4.75,0,0,0-.68-.37,10.25,10.25,0,0,0-5.39-1.31,9.58,9.58,0,0,0-4.87,1.26c-.26.11-.52.26-.84.42L39.06,64.09c-2.83,1.62-4.66,3-5.29,4.19-2.46,4.29-.31,10.21,4.87,13.19L120,128.21a13.19,13.19,0,0,0,4.29,1.52,11,11,0,0,0,2.67.31,12.21,12.21,0,0,0,6.07-1.67l62.48-36L177.61,81.94l-51,29.42L59.73,72.88l67.08-38.74L225,90l17.89-10.31c-.05-.05-110.22-62.78-110.22-62.78Z"/><path class="cls-4" d="M242,111.2c0-.05-.16-4.92-1.2-6.7-2.35-4.14-8.79-5.29-13.81-2.41l-82,47.37c-3.56,1.52-5.91,5.6-5.91,10.16l.11,72.24,17.9-10.31L157,163.18l67-38.69v77.95l-97.17,56.47v20.73l108.78-63.17a11.61,11.61,0,0,0,5.55-7,12.35,12.35,0,0,0,.79-4.4Z"/><path class="cls-4" d="M105.72,263.75v-.11h0Zm9.37-102.92c0-4.45-2.35-8.53-5.5-9.84a9.63,9.63,0,0,0-1.41-1L45.45,113.71v20.73l51.75,29.89V241.5L29.75,202.45l.09-111.78L11.89,80.19,11.8,206c0,.31.05.63.05.79A9.66,9.66,0,0,0,13.32,212a9.41,9.41,0,0,0,3.56,3.72,4.63,4.63,0,0,0,.84.52l81.73,47.32a13.29,13.29,0,0,0,6.28,1.94h.52c5-.31,8.84-4.92,8.84-10.78Z"/></g></g></svg>