<?xml version="1.0" encoding="utf-8"?>
<!-- Generator: Adobe Illustrator 17.0.0, SVG Export Plug-In . SVG Version: 6.00 Build 0)  -->
<!DOCTYPE svg PUBLIC "-//W3C//DTD SVG 1.1//EN" "http://www.w3.org/Graphics/SVG/1.1/DTD/svg11.dtd">
<svg version="1.1" id="Слой_1" xmlns="http://www.w3.org/2000/svg" xmlns:xlink="http://www.w3.org/1999/xlink" x="0px" y="0px"
	 width="177px" height="195.919px" viewBox="0 0 177 195.919" enable-background="new 0 0 177 195.919" xml:space="preserve">
<g>
	<path fill="#FFFFFF" d="M92.432,84.658l35.566-20.381c3.218-1.856,4.623-5.447,3.138-8.022c-1.485-2.574-5.297-3.157-8.515-1.301
		L88.33,74.604L35.832,44.441l52.626-30.35l70.746,40.759c3.218,1.856,7.03,1.273,8.515-1.301c1.485-2.574,0.08-6.166-3.138-8.022
		L92.203,3.828c-0.181-0.105-0.365-0.199-0.55-0.288c-0.894-0.542-1.988-0.813-3.151-0.793c-0.015,0-0.03,0-0.045-0.001
		c-0.015,0-0.03,0-0.045,0.001c-1.163-0.02-2.257,0.252-3.151,0.793c-0.185,0.089-0.368,0.183-0.55,0.288L23.72,39.002
		c-0.321,0.185-2.92,1.676-3.492,2.669c-1.485,2.574-0.08,6.166,3.138,8.022l60.632,34.834c0.936,0.54,1.922,0.867,2.887,1.005
		C88.566,85.979,90.595,85.717,92.432,84.658z"/>
	<path fill="#FFFFFF" d="M173.01,142.917l-0.007-69.925c0.001-0.534-0.209-3.497-0.702-4.353c-1.485-2.574-5.297-3.157-8.515-1.301
		l-60.991,35.174c-0.094,0.054-0.182,0.115-0.273,0.172c-2.116,0.912-3.632,3.422-3.62,6.378l0.06,40.992
		c0.016,3.715,2.438,6.716,5.409,6.703s5.368-3.034,5.353-6.749l-0.057-39.036l52.574-30.32l0.006,61.066l-71.02,41.048
		c-3.217,1.857-4.62,5.45-3.134,8.023c1.486,2.574,5.299,3.154,8.516,1.297l72.321-41.8c1.904-1.099,3.165-2.807,3.576-4.55
		C172.825,144.878,173.008,143.925,173.01,142.917z"/>
	<path fill="#FFFFFF" d="M74.845,103.638c-0.287-0.221-0.589-0.431-0.915-0.62L38.5,82.401c-3.216-1.859-7.029-1.281-8.516,1.292
		c-1.488,2.573-0.087,6.166,3.129,8.025l34.555,20.107l0.006,60.481l-52.876-30.574l-0.046-81.623
		c-0.001-3.715-2.411-6.725-5.383-6.724s-5.38,3.013-5.379,6.728l0.047,83.507c0,0.209,0.01,0.415,0.025,0.619
		c-0.023,1.045,0.289,2.129,0.888,3.127c0.007,0.013,0.014,0.026,0.021,0.038c0.008,0.013,0.015,0.026,0.023,0.039
		c0.564,1.017,1.346,1.829,2.262,2.332c0.169,0.115,0.343,0.227,0.524,0.332l60.951,35.243c0.904,0.523,2.552,1.38,4.314,1.274
		c2.967-0.178,5.386-3.003,5.391-6.718l-0.007-69.925C78.434,107.051,76.936,104.563,74.845,103.638z"/>
</g>
</svg>
